<svg xmlns="http://www.w3.org/2000/svg" width="393" height="75" fill="none" viewBox="0 0 393 75">
  <path fill="#fff" d="M181.691 55V19.998h15.151c3.133 0 5.833.517 8.1 1.55 2.267 1 4.017 2.45 5.251 4.35 1.233 1.9 1.85 4.167 1.85 6.8 0 2.6-.617 4.851-1.85 6.751-1.234 1.9-2.984 3.367-5.251 4.4-2.267 1-4.967 1.5-8.1 1.5h-10.651l3.6-3.65V55h-8.1Zm8.1-12.4-3.6-3.85h10.201c2.5 0 4.367-.534 5.6-1.601 1.233-1.067 1.85-2.55 1.85-4.45 0-1.934-.617-3.434-1.85-4.5-1.233-1.067-3.1-1.6-5.6-1.6h-10.201l3.6-3.85v19.85ZM217.214 55V28.099h7.8V55h-7.8Zm3.9-30.652c-1.433 0-2.6-.416-3.5-1.25-.9-.833-1.35-1.867-1.35-3.1s.45-2.267 1.35-3.1c.9-.834 2.067-1.25 3.5-1.25 1.434 0 2.6.4 3.5 1.2.901.767 1.351 1.767 1.351 3 0 1.3-.45 2.384-1.351 3.25-.866.834-2.033 1.25-3.5 1.25Zm26.941 3.35c2.133 0 4.033.434 5.7 1.3 1.7.834 3.034 2.134 4 3.9.967 1.734 1.45 3.968 1.45 6.701V55h-7.8V40.8c0-2.168-.483-3.768-1.45-4.801-.933-1.034-2.267-1.55-4-1.55-1.234 0-2.35.267-3.35.8-.967.5-1.734 1.283-2.301 2.35-.533 1.067-.8 2.434-.8 4.1V55h-7.8V28.099h7.45v7.45l-1.4-2.25a9.966 9.966 0 0 1 4.15-4.15c1.801-.967 3.851-1.45 6.151-1.45ZM282.227 55v-5.25l-.5-1.15v-9.4c0-1.668-.517-2.968-1.55-3.901-1-.934-2.55-1.4-4.65-1.4-1.434 0-2.85.233-4.251.7-1.366.433-2.533 1.033-3.5 1.8l-2.8-5.45c1.467-1.034 3.234-1.834 5.3-2.4a23.724 23.724 0 0 1 6.301-.85c4.1 0 7.284.966 9.55 2.9 2.267 1.933 3.4 4.95 3.4 9.05V55h-7.3Zm-8.2.4c-2.101 0-3.901-.35-5.401-1.05-1.5-.733-2.65-1.717-3.45-2.95-.8-1.234-1.2-2.617-1.2-4.15 0-1.6.383-3 1.15-4.2.8-1.2 2.05-2.134 3.75-2.8 1.7-.7 3.917-1.05 6.651-1.05h7.15v4.55h-6.3c-1.834 0-3.1.3-3.8.9-.667.6-1.001 1.35-1.001 2.25 0 1 .384 1.8 1.151 2.4.8.566 1.883.85 3.25.85 1.3 0 2.467-.3 3.5-.9 1.033-.634 1.783-1.55 2.25-2.75l1.2 3.6c-.567 1.733-1.6 3.05-3.1 3.95-1.5.9-3.434 1.35-5.8 1.35ZM45.81 33.14h10.108v3.78H45.81v-3.78Zm.36 8.64h11.428v3.9H41.34v-21h15.868v3.9H46.17v13.2Zm21.476 4.14c-1.52 0-2.89-.34-4.11-1.02a7.813 7.813 0 0 1-2.909-2.91c-.7-1.24-1.05-2.7-1.05-4.38 0-1.7.35-3.17 1.05-4.41.72-1.24 1.69-2.2 2.91-2.88 1.22-.679 2.59-1.019 4.11-1.019 1.36 0 2.55.3 3.57.9 1.019.6 1.809 1.51 2.369 2.73.56 1.22.84 2.78.84 4.68 0 1.88-.27 3.439-.81 4.679-.54 1.22-1.32 2.13-2.34 2.73-1 .6-2.21.9-3.63.9Zm.81-3.84c.76 0 1.45-.18 2.07-.54a3.87 3.87 0 0 0 1.47-1.53c.38-.68.57-1.48.57-2.4 0-.94-.19-1.74-.57-2.4a3.87 3.87 0 0 0-1.47-1.53c-.62-.36-1.31-.54-2.07-.54-.78 0-1.48.18-2.1.54-.62.36-1.12.87-1.5 1.53-.36.66-.54 1.46-.54 2.4 0 .92.18 1.72.54 2.4.38.66.88 1.17 1.5 1.53.62.36 1.32.54 2.1.54Zm4.23 3.6v-3.3l.09-4.8-.3-4.77v-9.388h4.68v22.257h-4.47Zm15.28.24c-1.34 0-2.54-.26-3.6-.78-1.04-.52-1.85-1.31-2.43-2.37-.58-1.08-.87-2.45-.87-4.11v-9.119h4.68v8.43c0 1.34.28 2.329.84 2.969.58.62 1.39.93 2.43.93.72 0 1.36-.15 1.92-.45.56-.32 1-.8 1.32-1.44.32-.66.48-1.48.48-2.46v-7.979h4.68v16.138h-4.44v-4.44l.81 1.29c-.54 1.12-1.34 1.97-2.4 2.55-1.04.56-2.18.84-3.42.84Zm23.354-.24v-3.15l-.3-.69V36.2c0-1-.31-1.78-.93-2.34-.6-.56-1.53-.84-2.79-.84-.86 0-1.71.14-2.55.42-.82.26-1.52.62-2.1 1.08l-1.68-3.27c.88-.62 1.94-1.1 3.18-1.439 1.24-.34 2.5-.51 3.78-.51 2.46 0 4.369.58 5.729 1.74 1.36 1.16 2.04 2.97 2.04 5.43v9.209h-4.379Zm-4.92.24c-1.26 0-2.34-.21-3.24-.63-.9-.44-1.59-1.03-2.07-1.77a4.484 4.484 0 0 1-.719-2.49c0-.96.23-1.8.689-2.52.48-.72 1.23-1.28 2.25-1.68 1.02-.42 2.35-.63 3.99-.63h4.289v2.73h-3.779c-1.1 0-1.86.18-2.28.54-.4.36-.6.81-.6 1.35 0 .6.23 1.08.69 1.44.48.34 1.13.51 1.95.51.78 0 1.48-.18 2.1-.54.62-.38 1.07-.93 1.35-1.65l.719 2.16c-.339 1.04-.959 1.83-1.859 2.37s-2.06.81-3.48.81Zm13.204-.24V29.54h4.47v4.56l-.63-1.32c.48-1.14 1.25-2 2.31-2.58 1.06-.6 2.35-.9 3.869-.9v4.32c-.2-.02-.38-.03-.54-.03a4.1 4.1 0 0 0-.509-.03c-1.28 0-2.32.37-3.12 1.11-.78.72-1.17 1.85-1.17 3.39v7.618h-4.68Zm19.284.24c-1.52 0-2.89-.34-4.11-1.02a7.818 7.818 0 0 1-2.909-2.91c-.7-1.24-1.05-2.7-1.05-4.38 0-1.7.35-3.17 1.05-4.41.72-1.24 1.69-2.2 2.909-2.88 1.22-.679 2.59-1.019 4.11-1.019 1.36 0 2.55.3 3.57.9 1.02.6 1.81 1.51 2.37 2.73s.839 2.78.839 4.68c0 1.88-.269 3.439-.809 4.679-.54 1.22-1.32 2.13-2.34 2.73-1 .6-2.21.9-3.63.9Zm.81-3.84c.76 0 1.45-.18 2.07-.54a3.87 3.87 0 0 0 1.47-1.53c.38-.68.57-1.48.57-2.4 0-.94-.19-1.74-.57-2.4a3.87 3.87 0 0 0-1.47-1.53c-.62-.36-1.31-.54-2.07-.54-.78 0-1.48.18-2.1.54-.62.36-1.12.87-1.5 1.53-.36.66-.54 1.46-.54 2.4 0 .92.18 1.72.54 2.4.38.66.88 1.17 1.5 1.53.62.36 1.32.54 2.1.54Zm4.23 3.6v-3.3l.09-4.8-.3-4.77v-9.388h4.679v22.257h-4.469Zm16.15.24c-1.72 0-3.25-.36-4.59-1.08a8.407 8.407 0 0 1-3.15-2.94c-.76-1.26-1.14-2.69-1.14-4.29 0-1.62.38-3.05 1.14-4.29a8.101 8.101 0 0 1 3.15-2.94c1.34-.719 2.87-1.079 4.59-1.079 1.699 0 3.219.36 4.559 1.08 1.34.7 2.39 1.67 3.15 2.91.76 1.24 1.14 2.68 1.14 4.32 0 1.6-.38 3.029-1.14 4.289-.76 1.24-1.81 2.22-3.15 2.94-1.34.72-2.86 1.08-4.559 1.08Zm0-3.84c.78 0 1.479-.18 2.099-.54a3.87 3.87 0 0 0 1.47-1.53c.36-.68.54-1.48.54-2.4 0-.94-.18-1.74-.54-2.4a3.87 3.87 0 0 0-1.47-1.53c-.62-.36-1.319-.54-2.099-.54-.78 0-1.48.18-2.1.54-.62.36-1.12.87-1.5 1.53-.36.66-.54 1.46-.54 2.4 0 .92.18 1.72.54 2.4.38.66.88 1.17 1.5 1.53.62.36 1.32.54 2.1.54Zm139.51 2.347v-11.2h5.088c1.216 0 2.288.234 3.216.704.928.458 1.653 1.104 2.176 1.936.522.832.784 1.818.784 2.96 0 1.13-.262 2.117-.784 2.96-.523.832-1.248 1.482-2.176 1.952-.928.458-2 .688-3.216.688h-5.088Zm2.592-2.128h2.368c.746 0 1.392-.139 1.936-.416a3.07 3.07 0 0 0 1.28-1.216c.309-.523.464-1.136.464-1.84 0-.715-.155-1.328-.464-1.84a2.97 2.97 0 0 0-1.28-1.2c-.544-.288-1.19-.432-1.936-.432h-2.368v6.944Zm14.546 2.256c-.981 0-1.845-.192-2.592-.576-.736-.384-1.306-.907-1.712-1.568-.405-.672-.608-1.435-.608-2.288 0-.864.198-1.627.592-2.288a4.242 4.242 0 0 1 1.648-1.568c.694-.384 1.478-.576 2.352-.576.843 0 1.6.181 2.272.544a3.925 3.925 0 0 1 1.616 1.536c.395.661.592 1.456.592 2.384 0 .096-.005.208-.016.336-.01.117-.021.229-.032.336h-6.992V39.37h5.68l-.96.432c0-.448-.09-.838-.272-1.168a1.929 1.929 0 0 0-.752-.768 2.134 2.134 0 0 0-1.12-.288c-.426 0-.805.096-1.136.288a1.91 1.91 0 0 0-.752.784c-.181.33-.272.725-.272 1.184v.384c0 .469.102.885.304 1.248.214.352.507.624.88.816.384.181.832.272 1.344.272.459 0 .859-.07 1.2-.208a2.93 2.93 0 0 0 .96-.624l1.328 1.44a3.94 3.94 0 0 1-1.488 1.04c-.597.234-1.285.352-2.064.352Zm7.826-.128-3.616-8.608h2.576l3.008 7.408h-1.28l3.12-7.408h2.4l-3.632 8.608h-2.576Zm35.769-1.867-14.278-5.43v-3.9l14.278-5.429v3.75l-12.869 4.68v-2.1l12.869 4.68v3.749Zm.499 6.12 9.899-28.258h4.17l-9.899 28.257h-4.17Zm14.267-6.12v-3.75l12.869-4.68v2.1l-12.869-4.68v-3.749l14.279 5.43v3.9l-14.279 5.429Zm-358.948 0-14.28-5.43v-3.9l14.28-5.429v3.75l-12.87 4.68v-2.1l12.87 4.68v3.749Zm3.348 0v-3.75l12.869-4.68v2.1l-12.869-4.68v-3.749l14.279 5.43v3.9L19.487 42.56Z"/>
</svg>
